<svg xmlns="http://www.w3.org/2000/svg" width="320" height="320" viewBox="0 0 320 320" fill="none">
<path d="M55.5 59.2455C81.5589 31.0561 118.411 13.1436 159.586 13.0009C241.488 12.7169 306.872 83.1458 304.086 165.001C303.305 187.956 297.467 209.574 287.638 228.69M34.6815 88C22.0023 110.807 15.1417 137.241 16.0862 165.001C18.767 243.795 80.7469 306.727 159.586 307.001C202.567 307.15 240.701 288.565 267 258.88" stroke="#907FFF" stroke-width="23"/>
<path d="M24.7469 94H122M122 94V192C120.5 219.5 102.195 223.345 68 222.5M122 94L205 222.5M205 222.5V81.5M205 222.5H297.862" stroke="#907FFF" stroke-width="23"/>
</svg>